decimals.ufo
<glyph name="exclam" format="2">
  <advance width="289"/>
  <unicode hex="0021"/>
  <outline>
    <contour>
      <point x="92.80000000000001" y="158.4" type="line"/>
      <point x="138.4" y="158.4" type="line"/>
      <point x="147.20000000000002" y="460.8" type="line"/>
      <point x="148.8" y="536.0" type="line"/>
      <point x="82.4" y="536.0" type="line"/>
      <point x="84.0" y="460.8" type="line"/>
    </contour>
    <contour>
      <point x="116.0" y="-9.600000000000001" type="curve" smooth="yes"/>
      <point x="141.6" y="-9.600000000000001"/>
      <point x="163.20000000000002" y="11.200000000000001"/>
      <point x="163.20000000000002" y="40.0" type="curve" smooth="yes"/>
      <point x="163.20000000000002" y="70.4"/>
      <point x="141.6" y="91.2"/>
      <point x="116.0" y="91.2" type="curve" smooth="yes"/>
      <point x="89.60000000000001" y="91.2"/>
      <point x="68.0" y="70.4"/>
      <point x="68.0" y="40.0" type="curve" smooth="yes"/>
      <point x="68.0" y="11.200000000000001"/>
      <point x="89.60000000000001" y="-9.600000000000001"/>
    </contour>
  </outline>
</glyph>
<glyph name="numbersign" format="2">
  <advance width="497"/>
  <unicode hex="0023"/>
  <outline>
    <contour>
      <point x="72.0" y="0.0" type="line"/>
      <point x="115.2" y="0.0" type="line"/>
      <point x="135.20000000000002" y="163.20000000000002" type="line"/>
      <point x="240.8" y="163.20000000000002" type="line"/>
      <point x="221.60000000000002" y="0.0" type="line"/>
      <point x="264.0" y="0.0" type="line"/>
      <point x="284.0" y="163.20000000000002" type="line"/>
      <point x="357.6" y="163.20000000000002" type="line"/>
      <point x="357.6" y="208.8" type="line"/>
      <point x="289.6" y="208.8" type="line"/>
      <point x="304.0" y="327.20000000000005" type="line"/>
      <point x="373.6" y="327.20000000000005" type="line"/>
      <point x="373.6" y="373.6" type="line"/>
      <point x="308.8" y="373.6" type="line"/>
      <point x="328.0" y="520.0" type="line"/>
      <point x="285.6" y="520.0" type="line"/>
      <point x="266.40000000000003" y="373.6" type="line"/>
      <point x="160.0" y="373.6" type="line"/>
      <point x="178.4" y="520.0" type="line"/>
      <point x="136.0" y="520.0" type="line"/>
      <point x="117.60000000000001" y="373.6" type="line"/>
      <point x="44.0" y="373.6" type="line"/>
      <point x="44.0" y="327.20000000000005" type="line"/>
      <point x="112.0" y="327.20000000000005" type="line"/>
      <point x="97.60000000000001" y="208.8" type="line"/>
      <point x="28.0" y="208.8" type="line"/>
      <point x="28.0" y="163.20000000000002" type="line"/>
      <point x="92.0" y="163.20000000000002" type="line"/>
    </contour>
    <contour>
      <point x="140.8" y="208.8" type="line"/>
      <point x="155.20000000000002" y="327.20000000000005" type="line"/>
      <point x="260.8" y="327.20000000000005" type="line"/>
      <point x="246.4" y="208.8" type="line"/>
    </contour>
  </outline>
</glyph>
<glyph name="asterisk" format="2">
  <advance width="418"/>
  <unicode hex="002A"/>
  <outline>
    <contour>
      <point x="110.4" y="336.0" type="line"/>
      <point x="167.20000000000002" y="404.8" type="line"/>
      <point x="224.0" y="336.0" type="line"/>
      <point x="255.20000000000002" y="359.20000000000005" type="line"/>
      <point x="210.4" y="434.40000000000003" type="line"/>
      <point x="288.0" y="466.40000000000003" type="line"/>
      <point x="276.0" y="503.20000000000005" type="line"/>
      <point x="193.60000000000002" y="484.0" type="line"/>
      <point x="186.4" y="569.6" type="line"/>
      <point x="147.20000000000002" y="569.6" type="line"/>
      <point x="140.0" y="483.20000000000005" type="line"/>
      <point x="58.400000000000006" y="503.20000000000005" type="line"/>
      <point x="46.400000000000006" y="466.40000000000003" type="line"/>
      <point x="124.0" y="434.40000000000003" type="line"/>
      <point x="78.4" y="359.20000000000005" type="line"/>
    </contour>
  </outline>
</glyph>
<glyph name="period" format="2">
  <advance width="249"/>
  <unicode hex="002E"/>
  <outline>
    <contour>
      <point x="100.0" y="-9.600000000000001" type="curve" smooth="yes"/>
      <point x="125.60000000000001" y="-9.600000000000001"/>
      <point x="147.20000000000002" y="11.200000000000001"/>
      <point x="147.20000000000002" y="40.0" type="curve" smooth="yes"/>
      <point x="147.20000000000002" y="70.4"/>
      <point x="125.60000000000001" y="91.2"/>
      <point x="100.0" y="91.2" type="curve" smooth="yes"/>
      <point x="73.60000000000001" y="91.2"/>
      <point x="52.0" y="70.4"/>
      <point x="52.0" y="40.0" type="curve" smooth="yes"/>
      <point x="52.0" y="11.200000000000001"/>
      <point x="73.60000000000001" y="-9.600000000000001"/>
    </contour>
  </outline>
</glyph>
<glyph name="two" format="2">
  <advance width="497"/>
  <unicode hex="0032"/>
  <outline>
    <contour>
      <point x="32.0" y="0.0" type="line"/>
      <point x="361.6" y="0.0" type="line"/>
      <point x="361.6" y="56.800000000000004" type="line"/>
      <point x="213.60000000000002" y="56.800000000000004" type="line" smooth="yes"/>
      <point x="187.20000000000002" y="56.800000000000004"/>
      <point x="156.0" y="54.400000000000006"/>
      <point x="128.0" y="52.0" type="curve"/>
      <point x="248.8" y="178.4"/>
      <point x="336.0" y="273.6"/>
      <point x="336.0" y="369.6" type="curve" smooth="yes"/>
      <point x="336.0" y="460.0"/>
      <point x="277.6" y="520.0"/>
      <point x="183.20000000000002" y="520.0" type="curve" smooth="yes"/>
      <point x="116.80000000000001" y="520.0"/>
      <point x="71.2" y="488.8"/>
      <point x="28.8" y="442.40000000000003" type="curve"/>
      <point x="66.4" y="404.8" type="line"/>
      <point x="96.0" y="439.20000000000005"/>
      <point x="132.8" y="466.40000000000003"/>
      <point x="175.20000000000002" y="466.40000000000003" type="curve" smooth="yes"/>
      <point x="240.0" y="466.40000000000003"/>
      <point x="272.0" y="424.8"/>
      <point x="272.0" y="366.40000000000003" type="curve" smooth="yes"/>
      <point x="272.0" y="284.0"/>
      <point x="185.60000000000002" y="192.0"/>
      <point x="32.0" y="39.2" type="curve"/>
    </contour>
  </outline>
</glyph>
<glyph name="three" format="2">
  <advance width="497"/>
  <unicode hex="0033"/>
  <outline>
    <contour>
      <point x="188.8" y="-9.600000000000001" type="curve" smooth="yes"/>
      <point x="282.40000000000003" y="-9.600000000000001"/>
      <point x="356.8" y="45.6"/>
      <point x="356.8" y="136.0" type="curve" smooth="yes"/>
      <point x="356.8" y="206.4"/>
      <point x="308.0" y="251.20000000000002"/>
      <point x="246.4" y="265.6" type="curve"/>
      <point x="246.4" y="268.8" type="line"/>
      <point x="301.6" y="289.6"/>
      <point x="339.20000000000005" y="328.8"/>
      <point x="339.20000000000005" y="390.40000000000003" type="curve" smooth="yes"/>
      <point x="339.20000000000005" y="472.8"/>
      <point x="275.2" y="520.0"/>
      <point x="186.4" y="520.0" type="curve" smooth="yes"/>
      <point x="126.4" y="520.0"/>
      <point x="79.2" y="492.8"/>
      <point x="40.0" y="456.0" type="curve"/>
      <point x="75.2" y="414.40000000000003" type="line"/>
      <point x="105.60000000000001" y="444.8"/>
      <point x="141.6" y="466.40000000000003"/>
      <point x="184.0" y="466.40000000000003" type="curve" smooth="yes"/>
      <point x="238.4" y="466.40000000000003"/>
      <point x="272.0" y="435.20000000000005"/>
      <point x="272.0" y="385.6" type="curve" smooth="yes"/>
      <point x="272.0" y="332.0"/>
      <point x="236.0" y="290.40000000000003"/>
      <point x="127.2" y="290.40000000000003" type="curve"/>
      <point x="127.2" y="240.0" type="line"/>
      <point x="248.8" y="240.0"/>
      <point x="290.40000000000003" y="199.20000000000002"/>
      <point x="290.40000000000003" y="138.4" type="curve" smooth="yes"/>
      <point x="290.40000000000003" y="81.60000000000001"/>
      <point x="246.4" y="44.800000000000004"/>
      <point x="184.8" y="44.800000000000004" type="curve" smooth="yes"/>
      <point x="124.80000000000001" y="44.800000000000004"/>
      <point x="84.80000000000001" y="73.60000000000001"/>
      <point x="54.400000000000006" y="105.60000000000001" type="curve"/>
      <point x="20.8" y="62.400000000000006" type="line"/>
      <point x="55.2" y="24.8"/>
      <point x="107.2" y="-9.600000000000001"/>
    </contour>
  </outline>
</glyph>
<glyph name="four" format="2">
  <advance width="497"/>
  <unicode hex="0034"/>
  <outline>
    <contour>
      <point x="243.20000000000002" y="0.0" type="line"/>
      <point x="305.6" y="0.0" type="line"/>
      <point x="305.6" y="510.40000000000003" type="line"/>
      <point x="232.0" y="510.40000000000003" type="line"/>
      <point x="13.600000000000001" y="184.0" type="line"/>
      <point x="13.600000000000001" y="140.8" type="line"/>
      <point x="375.20000000000005" y="140.8" type="line"/>
      <point x="375.20000000000005" y="193.60000000000002" type="line"/>
      <point x="83.2" y="193.60000000000002" type="line"/>
      <point x="202.4" y="368.0" type="line"/>
      <point x="216.8" y="392.8"/>
      <point x="231.20000000000002" y="415.20000000000005"/>
      <point x="244.0" y="440.0" type="curve"/>
      <point x="247.20000000000002" y="440.0" type="line"/>
      <point x="245.60000000000002" y="412.8"/>
      <point x="243.20000000000002" y="368.8"/>
      <point x="243.20000000000002" y="341.6" type="curve" smooth="yes"/>
    </contour>
  </outline>
</glyph>
<glyph name="six" format="2">
  <advance width="497"/>
  <unicode hex="0036"/>
  <outline>
    <contour>
      <point x="214.4" y="-9.600000000000001" type="curve" smooth="yes"/>
      <point x="296.8" y="-9.600000000000001"/>
      <point x="365.6" y="56.800000000000004"/>
      <point x="365.6" y="154.4" type="curve" smooth="yes"/>
      <point x="365.6" y="259.2"/>
      <point x="308.0" y="312.0"/>
      <point x="220.0" y="312.0" type="curve" smooth="yes"/>
      <point x="176.8" y="312.0"/>
      <point x="128.8" y="284.8"/>
      <point x="96.80000000000001" y="242.4" type="curve"/>
      <point x="99.2" y="190.4" type="line"/>
      <point x="134.4" y="242.4"/>
      <point x="176.0" y="262.40000000000003"/>
      <point x="208.8" y="262.40000000000003" type="curve" smooth="yes"/>
      <point x="272.0" y="262.40000000000003"/>
      <point x="303.2" y="220.8"/>
      <point x="303.2" y="154.4" type="curve" smooth="yes"/>
      <point x="303.2" y="87.2"/>
      <point x="264.8" y="42.400000000000006"/>
      <point x="214.4" y="42.400000000000006" type="curve" smooth="yes"/>
      <point x="141.6" y="42.400000000000006"/>
      <point x="100.80000000000001" y="110.4"/>
      <point x="100.80000000000001" y="236.0" type="curve" smooth="yes"/>
      <point x="100.80000000000001" y="407.20000000000005"/>
      <point x="162.4" y="464.8"/>
      <point x="235.20000000000002" y="464.8" type="curve" smooth="yes"/>
      <point x="267.2" y="464.8"/>
      <point x="298.40000000000003" y="449.6"/>
      <point x="319.20000000000005" y="424.8" type="curve"/>
      <point x="356.0" y="465.6" type="line"/>
      <point x="327.20000000000005" y="496.8"/>
      <point x="288.0" y="520.0"/>
      <point x="232.8" y="520.0" type="curve" smooth="yes"/>
      <point x="131.20000000000002" y="520.0"/>
      <point x="38.400000000000006" y="440.8"/>
      <point x="38.400000000000006" y="236.0" type="curve" smooth="yes"/>
      <point x="38.400000000000006" y="72.0"/>
      <point x="114.4" y="-9.600000000000001"/>
    </contour>
  </outline>
</glyph>
<glyph name="seven" format="2">
  <advance width="497"/>
  <unicode hex="0037"/>
  <outline>
    <contour>
      <point x="141.6" y="0.0" type="curve"/>
      <point x="209.60000000000002" y="0.0" type="line"/>
      <point x="218.4" y="199.20000000000002"/>
      <point x="243.20000000000002" y="315.20000000000005"/>
      <point x="364.0" y="469.6" type="curve"/>
      <point x="364.0" y="510.40000000000003" type="line"/>
      <point x="35.2" y="510.40000000000003" type="line"/>
      <point x="35.2" y="453.6" type="line"/>
      <point x="289.6" y="453.6" type="line"/>
      <point x="188.8" y="313.6"/>
      <point x="150.4" y="192.0"/>
    </contour>
  </outline>
</glyph>
<glyph name="greater" format="2">
  <advance width="497"/>
  <unicode hex="003E"/>
  <outline>
    <contour>
      <point x="27.200000000000003" y="104.80000000000001" type="line"/>
      <point x="370.40000000000003" y="239.20000000000002" type="line"/>
      <point x="370.40000000000003" y="292.0" type="line"/>
      <point x="27.200000000000003" y="426.40000000000003" type="line"/>
      <point x="27.200000000000003" y="369.6" type="line"/>
      <point x="196.0" y="307.20000000000005" type="line"/>
      <point x="303.2" y="267.2" type="line"/>
      <point x="303.2" y="264.0" type="line"/>
      <point x="196.0" y="224.0" type="line"/>
      <point x="27.200000000000003" y="161.60000000000002" type="line"/>
    </contour>
  </outline>
</glyph>
<glyph name="question" format="2">
  <advance width="425"/>
  <unicode hex="003F"/>
  <outline>
    <contour>
      <point x="128.0" y="158.4" type="curve"/>
      <point x="185.60000000000002" y="158.4" type="line"/>
      <point x="172.8" y="270.40000000000003"/>
      <point x="301.6" y="312.8"/>
      <point x="301.6" y="417.6" type="curve" smooth="yes"/>
      <point x="301.6" y="496.8"/>
      <point x="248.8" y="545.6"/>
      <point x="168.0" y="545.6" type="curve" smooth="yes"/>
      <point x="109.60000000000001" y="545.6"/>
      <point x="64.0" y="517.6"/>
      <point x="30.400000000000002" y="479.20000000000005" type="curve"/>
      <point x="68.0" y="444.8" type="line"/>
      <point x="92.80000000000001" y="473.6"/>
      <point x="124.80000000000001" y="491.20000000000005"/>
      <point x="160.0" y="491.20000000000005" type="curve" smooth="yes"/>
      <point x="211.20000000000002" y="491.20000000000005"/>
      <point x="237.60000000000002" y="456.0"/>
      <point x="237.60000000000002" y="413.6" type="curve" smooth="yes"/>
      <point x="237.60000000000002" y="328.8"/>
      <point x="110.4" y="283.2"/>
    </contour>
    <contour>
      <point x="158.4" y="-9.600000000000001" type="curve" smooth="yes"/>
      <point x="184.8" y="-9.600000000000001"/>
      <point x="206.4" y="11.200000000000001"/>
      <point x="206.4" y="40.0" type="curve" smooth="yes"/>
      <point x="206.4" y="70.4"/>
      <point x="184.8" y="91.2"/>
      <point x="158.4" y="91.2" type="curve" smooth="yes"/>
      <point x="132.0" y="91.2"/>
      <point x="111.2" y="70.4"/>
      <point x="111.2" y="40.0" type="curve" smooth="yes"/>
      <point x="111.2" y="11.200000000000001"/>
      <point x="132.0" y="-9.600000000000001"/>
    </contour>
  </outline>
</glyph>
<glyph name="at" format="2">
  <advance width="847"/>
  <unicode hex="0040"/>
  <outline>
    <contour>
      <point x="322.40000000000003" y="-124.0" type="curve" smooth="yes"/>
      <point x="377.6" y="-124.0"/>
      <point x="428.0" y="-111.2"/>
      <point x="474.40000000000003" y="-83.2" type="curve"/>
      <point x="456.8" y="-44.0" type="line"/>
      <point x="420.8" y="-64.8"/>
      <point x="376.0" y="-80.0"/>
      <point x="327.20000000000005" y="-80.0" type="curve" smooth="yes"/>
      <point x="191.20000000000002" y="-80.0"/>
      <point x="88.80000000000001" y="8.8"/>
      <point x="88.80000000000001" y="164.8" type="curve" smooth="yes"/>
      <point x="88.80000000000001" y="352.0"/>
      <point x="226.4" y="472.8"/>
      <point x="368.8" y="472.8" type="curve" smooth="yes"/>
      <point x="514.4" y="472.8"/>
      <point x="590.4" y="378.40000000000003"/>
      <point x="590.4" y="249.60000000000002" type="curve" smooth="yes"/>
      <point x="590.4" y="145.6"/>
      <point x="533.6" y="84.0"/>
      <point x="483.20000000000005" y="84.0" type="curve" smooth="yes"/>
      <point x="439.20000000000005" y="84.0"/>
      <point x="424.0" y="114.4"/>
      <point x="440.0" y="177.60000000000002" type="curve" smooth="yes"/>
      <point x="471.20000000000005" y="337.6" type="line"/>
      <point x="427.20000000000005" y="337.6" type="line"/>
      <point x="418.40000000000003" y="305.6" type="line"/>
      <point x="416.8" y="305.6" type="line"/>
      <point x="402.40000000000003" y="332.0"/>
      <point x="380.0" y="344.0"/>
      <point x="352.8" y="344.0" type="curve" smooth="yes"/>
      <point x="259.2" y="344.0"/>
      <point x="199.20000000000002" y="244.0"/>
      <point x="199.20000000000002" y="158.4" type="curve" smooth="yes"/>
      <point x="199.20000000000002" y="85.60000000000001"/>
      <point x="240.8" y="45.6"/>
      <point x="295.2" y="45.6" type="curve" smooth="yes"/>
      <point x="330.40000000000003" y="45.6"/>
      <point x="366.40000000000003" y="68.8"/>
      <point x="392.8" y="100.0" type="curve"/>
      <point x="394.40000000000003" y="100.0" type="line"/>
      <point x="400.0" y="60.0"/>
      <point x="433.6" y="39.2"/>
      <point x="476.8" y="39.2" type="curve" smooth="yes"/>
      <point x="549.6" y="39.2"/>
      <point x="636.8000000000001" y="112.0"/>
      <point x="636.8000000000001" y="252.0" type="curve" smooth="yes"/>
      <point x="636.8000000000001" y="409.6"/>
      <point x="536.0" y="516.8000000000001"/>
      <point x="374.40000000000003" y="516.8000000000001" type="curve" smooth="yes"/>
      <point x="195.20000000000002" y="516.8000000000001"/>
      <point x="40.800000000000004" y="376.8"/>
      <point x="40.800000000000004" y="162.4" type="curve" smooth="yes"/>
      <point x="40.800000000000004" y="-24.0"/>
      <point x="165.60000000000002" y="-124.0"/>
    </contour>
    <contour>
      <point x="308.0" y="90.4" type="curve" smooth="yes"/>
      <point x="276.0" y="90.4"/>
      <point x="252.0" y="111.2"/>
      <point x="252.0" y="162.4" type="curve" smooth="yes"/>
      <point x="252.0" y="222.4"/>
      <point x="290.40000000000003" y="298.40000000000003"/>
      <point x="353.6" y="298.40000000000003" type="curve" smooth="yes"/>
      <point x="375.20000000000005" y="298.40000000000003"/>
      <point x="389.6" y="289.6"/>
      <point x="404.8" y="264.8" type="curve"/>
      <point x="381.6" y="137.6" type="line"/>
      <point x="354.40000000000003" y="104.80000000000001"/>
      <point x="330.40000000000003" y="90.4"/>
    </contour>
  </outline>
</glyph>
<glyph name="B" format="2">
  <advance width="588"/>
  <unicode hex="0042"/>
  <anchor x="287.64" y="671.0" name="aboveUC"/>
  <anchor x="302.34" y="-14.999999999999996" name="belowLC"/>
  <outline>
    <contour>
      <point x="94.58" y="6.560000000000002" type="line"/>
      <point x="299.4" y="6.560000000000002" type="line" smooth="yes"/>
      <point x="443.46" y="6.560000000000002"/>
      <point x="543.42" y="68.30000000000001"/>
      <point x="543.42" y="194.72" type="curve" smooth="yes"/>
      <point x="543.42" y="282.92"/>
      <point x="489.52" y="333.88"/>
      <point x="412.09999999999997" y="348.58" type="curve"/>
      <point x="412.09999999999997" y="352.5" type="line"/>
      <point x="472.86" y="372.1"/>
      <point x="506.18" y="428.94"/>
      <point x="506.18" y="492.64" type="curve" smooth="yes"/>
      <point x="506.18" y="605.3399999999999"/>
      <point x="416.02" y="649.44"/>
      <point x="285.68" y="649.44" type="curve" smooth="yes"/>
      <point x="94.58" y="649.44" type="line"/>
    </contour>
    <contour>
      <point x="175.92" y="376.02" type="line"/>
      <point x="175.92" y="584.76" type="line"/>
      <point x="274.9" y="584.76" type="line" smooth="yes"/>
      <point x="374.86" y="584.76"/>
      <point x="425.82" y="556.3399999999999"/>
      <point x="425.82" y="481.86" type="curve" smooth="yes"/>
      <point x="425.82" y="416.2"/>
      <point x="380.74" y="376.02"/>
      <point x="270.98" y="376.02" type="curve" smooth="yes"/>
    </contour>
    <contour>
      <point x="175.92" y="71.24" type="line"/>
      <point x="175.92" y="313.3" type="line"/>
      <point x="287.64" y="313.3" type="line" smooth="yes"/>
      <point x="400.34" y="313.3"/>
      <point x="463.06" y="277.04"/>
      <point x="463.06" y="197.66" type="curve" smooth="yes"/>
      <point x="463.06" y="111.42"/>
      <point x="398.38" y="71.24"/>
      <point x="287.64" y="71.24" type="curve" smooth="yes"/>
    </contour>
  </outline>
</glyph>
<glyph name="G" format="2">
  <advance width="617"/>
  <unicode hex="0047"/>
  <anchor x="282.40000000000003" y="542.4" name="aboveUC"/>
  <anchor x="278.40000000000003" y="-17.6" name="belowLC"/>
  <outline>
    <contour>
      <point x="278.40000000000003" y="-9.600000000000001" type="curve" smooth="yes"/>
      <point x="348.8" y="-9.600000000000001"/>
      <point x="406.40000000000003" y="16.0"/>
      <point x="440.0" y="51.2" type="curve"/>
      <point x="440.0" y="272.0" type="line"/>
      <point x="268.0" y="272.0" type="line"/>
      <point x="268.0" y="216.8" type="line"/>
      <point x="379.20000000000005" y="216.8" type="line"/>
      <point x="379.20000000000005" y="80.0" type="line"/>
      <point x="358.40000000000003" y="60.800000000000004"/>
      <point x="322.40000000000003" y="48.800000000000004"/>
      <point x="284.8" y="48.800000000000004" type="curve" smooth="yes"/>
      <point x="172.8" y="48.800000000000004"/>
      <point x="110.4" y="132.0"/>
      <point x="110.4" y="264.0" type="curve" smooth="yes"/>
      <point x="110.4" y="394.40000000000003"/>
      <point x="178.4" y="476.0"/>
      <point x="284.0" y="476.0" type="curve" smooth="yes"/>
      <point x="336.8" y="476.0"/>
      <point x="370.40000000000003" y="453.6"/>
      <point x="396.8" y="426.40000000000003" type="curve"/>
      <point x="433.6" y="469.6" type="line"/>
      <point x="403.20000000000005" y="501.6"/>
      <point x="355.20000000000005" y="534.4"/>
      <point x="282.40000000000003" y="534.4" type="curve" smooth="yes"/>
      <point x="143.20000000000002" y="534.4"/>
      <point x="41.6" y="431.20000000000005"/>
      <point x="41.6" y="262.40000000000003" type="curve" smooth="yes"/>
      <point x="41.6" y="91.2"/>
      <point x="140.0" y="-9.600000000000001"/>
    </contour>
  </outline>
</glyph>
<glyph name="H" format="2">
  <advance width="652"/>
  <unicode hex="0048"/>
  <anchor x="260.0" y="542.4" name="aboveUC"/>
  <anchor x="260.0" y="-17.6" name="belowLC"/>
  <outline>
    <contour>
      <point x="72.0" y="0.0" type="line"/>
      <point x="138.4" y="0.0" type="line"/>
      <point x="138.4" y="247.20000000000002" type="line"/>
      <point x="382.40000000000003" y="247.20000000000002" type="line"/>
      <point x="382.40000000000003" y="0.0" type="line"/>
      <point x="449.6" y="0.0" type="line"/>
      <point x="449.6" y="524.8000000000001" type="line"/>
      <point x="382.40000000000003" y="524.8000000000001" type="line"/>
      <point x="382.40000000000003" y="304.8" type="line"/>
      <point x="138.4" y="304.8" type="line"/>
      <point x="138.4" y="524.8000000000001" type="line"/>
      <point x="72.0" y="524.8000000000001" type="line"/>
    </contour>
  </outline>
</glyph>
<glyph name="I" format="2">
  <advance width="263"/>
  <unicode hex="0049"/>
  <anchor x="104.80000000000001" y="542.4" name="aboveUC"/>
  <anchor x="86.4" y="0" name="ogonekUC"/>
  <anchor x="104.80000000000001" y="-17.6" name="belowLC"/>
  <outline>
    <contour>
      <point x="72.0" y="0.0" type="line"/>
      <point x="138.4" y="0.0" type="line"/>
      <point x="138.4" y="524.8000000000001" type="line"/>
      <point x="72.0" y="524.8000000000001" type="line"/>
    </contour>
  </outline>
</glyph>
<glyph name="R" format="2">
  <advance width="569"/>
  <unicode hex="0052"/>
  <anchor x="236.0" y="542.4" name="aboveUC"/>
  <anchor x="248.0" y="-17.6" name="belowLC"/>
  <outline>
    <contour>
      <point x="72.0" y="0.0" type="line"/>
      <point x="138.4" y="0.0" type="line"/>
      <point x="138.4" y="221.60000000000002" type="line"/>
      <point x="236.0" y="221.60000000000002" type="line" smooth="yes"/>
      <point x="343.20000000000005" y="221.60000000000002"/>
      <point x="420.0" y="272.8"/>
      <point x="420.0" y="377.6" type="curve" smooth="yes"/>
      <point x="420.0" y="486.40000000000003"/>
      <point x="343.20000000000005" y="524.8000000000001"/>
      <point x="236.0" y="524.8000000000001" type="curve" smooth="yes"/>
      <point x="72.0" y="524.8000000000001" type="line"/>
    </contour>
    <contour>
      <point x="138.4" y="276.0" type="line"/>
      <point x="138.4" y="471.20000000000005" type="line"/>
      <point x="226.4" y="471.20000000000005" type="line" smooth="yes"/>
      <point x="308.0" y="471.20000000000005"/>
      <point x="353.6" y="446.40000000000003"/>
      <point x="353.6" y="377.6" type="curve" smooth="yes"/>
      <point x="353.6" y="309.6"/>
      <point x="308.0" y="276.0"/>
      <point x="226.4" y="276.0" type="curve" smooth="yes"/>
    </contour>
    <contour>
      <point x="360.0" y="0.0" type="line"/>
      <point x="435.20000000000005" y="0.0" type="line"/>
      <point x="275.2" y="275.2" type="line"/>
      <point x="223.20000000000002" y="240.0" type="line"/>
    </contour>
  </outline>
</glyph>
<glyph name="V" format="2">
  <advance width="515"/>
  <unicode hex="0056"/>
  <anchor x="205.60000000000002" y="542.4" name="aboveUC"/>
  <anchor x="206.4" y="-17.6" name="belowLC"/>
  <outline>
    <contour>
      <point x="168.0" y="0.0" type="line"/>
      <point x="245.60000000000002" y="0.0" type="line"/>
      <point x="412.0" y="524.8000000000001" type="line"/>
      <point x="344.0" y="524.8000000000001" type="line"/>
      <point x="260.0" y="241.60000000000002" type="line" smooth="yes"/>
      <point x="241.60000000000002" y="179.20000000000002"/>
      <point x="228.8" y="129.6"/>
      <point x="209.60000000000002" y="68.0" type="curve"/>
      <point x="206.4" y="68.0" type="line"/>
      <point x="186.4" y="129.6"/>
      <point x="174.4" y="179.20000000000002"/>
      <point x="155.20000000000002" y="241.60000000000002" type="curve" smooth="yes"/>
      <point x="71.2" y="524.8000000000001" type="line"/>
      <point x="0.0" y="524.8000000000001" type="line"/>
    </contour>
  </outline>
</glyph>
<glyph name="backslash" format="2">
  <advance width="350"/>
  <unicode hex="005C"/>
  <outline>
    <contour>
      <point x="224.8" y="-128.0" type="line"/>
      <point x="272.0" y="-128.0" type="line"/>
      <point x="58.400000000000006" y="568.0" type="line"/>
      <point x="11.200000000000001" y="568.0" type="line"/>
    </contour>
  </outline>
</glyph>
<glyph name="e" format="2">
  <advance width="496"/>
  <unicode hex="0065"/>
  <anchor x="311.20000000000005" y="0" name="ogonekLC"/>
  <anchor x="211.20000000000002" y="407.20000000000005" name="aboveLC"/>
  <anchor x="209.60000000000002" y="-17.6" name="belowLC"/>
  <outline>
    <contour>
      <point x="223.20000000000002" y="-9.600000000000001" type="curve" smooth="yes"/>
      <point x="276.0" y="-9.600000000000001"/>
      <point x="317.6" y="8.8"/>
      <point x="351.20000000000005" y="30.400000000000002" type="curve"/>
      <point x="328.0" y="73.60000000000001" type="line"/>
      <point x="299.2" y="55.2"/>
      <point x="268.0" y="43.2"/>
      <point x="231.20000000000002" y="43.2" type="curve" smooth="yes"/>
      <point x="156.8" y="43.2"/>
      <point x="106.4" y="96.0"/>
      <point x="101.60000000000001" y="178.4" type="curve"/>
      <point x="364.0" y="178.4" type="line"/>
      <point x="365.6" y="188.0"/>
      <point x="366.40000000000003" y="202.4"/>
      <point x="366.40000000000003" y="216.0" type="curve" smooth="yes"/>
      <point x="366.40000000000003" y="327.20000000000005"/>
      <point x="310.40000000000003" y="398.40000000000003"/>
      <point x="211.20000000000002" y="398.40000000000003" type="curve" smooth="yes"/>
      <point x="122.4" y="398.40000000000003"/>
      <point x="36.800000000000004" y="320.8"/>
      <point x="36.800000000000004" y="193.60000000000002" type="curve" smooth="yes"/>
      <point x="36.800000000000004" y="66.4"/>
      <point x="119.2" y="-9.600000000000001"/>
    </contour>
    <contour>
      <point x="100.80000000000001" y="225.60000000000002" type="line"/>
      <point x="108.80000000000001" y="302.40000000000003"/>
      <point x="158.4" y="346.40000000000003"/>
      <point x="212.8" y="346.40000000000003" type="curve" smooth="yes"/>
      <point x="273.6" y="346.40000000000003"/>
      <point x="308.8" y="304.0"/>
      <point x="308.8" y="225.60000000000002" type="curve"/>
    </contour>
  </outline>
</glyph>
<glyph name="g" format="2">
  <advance width="504"/>
  <unicode hex="0067"/>
  <anchor x="206.4" y="407.20000000000005" name="aboveLC"/>
  <anchor x="200.0" y="-184.0" name="belowLC"/>
  <outline>
    <contour>
      <point x="196.8" y="-179.20000000000002" type="curve" smooth="yes"/>
      <point x="317.6" y="-179.20000000000002"/>
      <point x="393.6" y="-116.80000000000001"/>
      <point x="393.6" y="-44.800000000000004" type="curve" smooth="yes"/>
      <point x="393.6" y="20.0"/>
      <point x="348.0" y="48.0"/>
      <point x="257.6" y="48.0" type="curve" smooth="yes"/>
      <point x="182.4" y="48.0" type="line" smooth="yes"/>
      <point x="129.6" y="48.0"/>
      <point x="113.60000000000001" y="65.60000000000001"/>
      <point x="113.60000000000001" y="90.4" type="curve" smooth="yes"/>
      <point x="113.60000000000001" y="112.0"/>
      <point x="124.80000000000001" y="124.80000000000001"/>
      <point x="138.4" y="136.8" type="curve"/>
      <point x="156.0" y="128.0"/>
      <point x="177.60000000000002" y="123.2"/>
      <point x="196.8" y="123.2" type="curve" smooth="yes"/>
      <point x="276.0" y="123.2"/>
      <point x="339.20000000000005" y="175.20000000000002"/>
      <point x="339.20000000000005" y="258.40000000000003" type="curve" smooth="yes"/>
      <point x="339.20000000000005" y="291.2"/>
      <point x="325.6" y="320.8"/>
      <point x="307.20000000000005" y="338.40000000000003" type="curve"/>
      <point x="387.20000000000005" y="338.40000000000003" type="line"/>
      <point x="387.20000000000005" y="388.8" type="line"/>
      <point x="252.0" y="388.8" type="line"/>
      <point x="237.60000000000002" y="394.40000000000003"/>
      <point x="218.4" y="398.40000000000003"/>
      <point x="196.8" y="398.40000000000003" type="curve" smooth="yes"/>
      <point x="117.60000000000001" y="398.40000000000003"/>
      <point x="50.400000000000006" y="344.8"/>
      <point x="50.400000000000006" y="260.0" type="curve" smooth="yes"/>
      <point x="50.400000000000006" y="213.60000000000002"/>
      <point x="75.2" y="176.0"/>
      <point x="100.80000000000001" y="155.20000000000002" type="curve"/>
      <point x="100.80000000000001" y="152.0" type="line"/>
      <point x="80.80000000000001" y="138.4"/>
      <point x="58.400000000000006" y="112.80000000000001"/>
      <point x="58.400000000000006" y="80.0" type="curve" smooth="yes"/>
      <point x="58.400000000000006" y="49.6"/>
      <point x="73.60000000000001" y="28.8"/>
      <point x="92.80000000000001" y="16.8" type="curve"/>
      <point x="92.80000000000001" y="13.600000000000001" type="line"/>
      <point x="57.6" y="-10.4"/>
      <point x="36.0" y="-41.6"/>
      <point x="36.0" y="-74.4" type="curve" smooth="yes"/>
      <point x="36.0" y="-141.6"/>
      <point x="101.60000000000001" y="-179.20000000000002"/>
    </contour>
    <contour>
      <point x="196.8" y="167.20000000000002" type="curve" smooth="yes"/>
      <point x="152.0" y="167.20000000000002"/>
      <point x="114.4" y="203.20000000000002"/>
      <point x="114.4" y="260.0" type="curve" smooth="yes"/>
      <point x="114.4" y="316.8"/>
      <point x="151.20000000000002" y="350.40000000000003"/>
      <point x="196.8" y="350.40000000000003" type="curve" smooth="yes"/>
      <point x="242.4" y="350.40000000000003"/>
      <point x="279.2" y="316.8"/>
      <point x="279.2" y="260.0" type="curve" smooth="yes"/>
      <point x="279.2" y="203.20000000000002"/>
      <point x="241.60000000000002" y="167.20000000000002"/>
    </contour>
    <contour>
      <point x="206.4" y="-133.6" type="curve" smooth="yes"/>
      <point x="136.0" y="-133.6"/>
      <point x="93.60000000000001" y="-107.2"/>
      <point x="93.60000000000001" y="-65.60000000000001" type="curve" smooth="yes"/>
      <point x="93.60000000000001" y="-43.2"/>
      <point x="105.60000000000001" y="-20.0"/>
      <point x="133.6" y="0.0" type="curve"/>
      <point x="150.4" y="-4.800000000000001"/>
      <point x="168.8" y="-6.4"/>
      <point x="184.0" y="-6.4" type="curve" smooth="yes"/>
      <point x="251.20000000000002" y="-6.4" type="line" smooth="yes"/>
      <point x="301.6" y="-6.4"/>
      <point x="329.6" y="-18.400000000000002"/>
      <point x="329.6" y="-54.400000000000006" type="curve" smooth="yes"/>
      <point x="329.6" y="-95.2"/>
      <point x="280.8" y="-133.6"/>
    </contour>
  </outline>
</glyph>
<glyph name="j" format="2">
  <advance width="247"/>
  <unicode hex="006A"/>
  <anchor x="100.0" y="555.2" name="aboveLC"/>
  <anchor x="47.2" y="-184.8" name="belowLC"/>
  <outline>
    <contour>
      <point x="25.6" y="-173.60000000000002" type="curve" smooth="yes"/>
      <point x="103.2" y="-173.60000000000002"/>
      <point x="132.0" y="-123.2"/>
      <point x="132.0" y="-44.0" type="curve" smooth="yes"/>
      <point x="132.0" y="388.8" type="line"/>
      <point x="66.4" y="388.8" type="line"/>
      <point x="66.4" y="-44.0" type="line" smooth="yes"/>
      <point x="66.4" y="-91.2"/>
      <point x="56.800000000000004" y="-120.0"/>
      <point x="18.400000000000002" y="-120.0" type="curve" smooth="yes"/>
      <point x="4.800000000000001" y="-120.0"/>
      <point x="-8.8" y="-116.80000000000001"/>
      <point x="-18.400000000000002" y="-113.60000000000001" type="curve"/>
      <point x="-32.0" y="-163.20000000000002" type="line"/>
      <point x="-18.400000000000002" y="-168.8"/>
      <point x="1.6" y="-173.60000000000002"/>
    </contour>
    <contour>
      <point x="100.0" y="468.8" type="curve" smooth="yes"/>
      <point x="124.80000000000001" y="468.8"/>
      <point x="144.8" y="486.40000000000003"/>
      <point x="144.8" y="511.20000000000005" type="curve" smooth="yes"/>
      <point x="144.8" y="536.8000000000001"/>
      <point x="124.80000000000001" y="553.6"/>
      <point x="100.0" y="553.6" type="curve" smooth="yes"/>
      <point x="74.4" y="553.6"/>
      <point x="54.400000000000006" y="536.8000000000001"/>
      <point x="54.400000000000006" y="511.20000000000005" type="curve" smooth="yes"/>
      <point x="54.400000000000006" y="486.40000000000003"/>
      <point x="74.4" y="468.8"/>
    </contour>
  </outline>
</glyph>
<glyph name="k" format="2">
  <advance width="495"/>
  <unicode hex="006B"/>
  <anchor x="100.80000000000001" y="584.0" name="aboveLC"/>
  <anchor x="216.8" y="-17.6" name="belowLC"/>
  <outline>
    <contour>
      <point x="65.60000000000001" y="0.0" type="line"/>
      <point x="130.4" y="0.0" type="line"/>
      <point x="130.4" y="102.4" type="line"/>
      <point x="203.20000000000002" y="187.20000000000002" type="line"/>
      <point x="316.8" y="0.0" type="line"/>
      <point x="388.8" y="0.0" type="line"/>
      <point x="240.8" y="232.8" type="line"/>
      <point x="371.20000000000005" y="388.8" type="line"/>
      <point x="298.40000000000003" y="388.8" type="line"/>
      <point x="132.8" y="184.0" type="line"/>
      <point x="130.4" y="184.0" type="line"/>
      <point x="130.4" y="569.6" type="line"/>
      <point x="65.60000000000001" y="569.6" type="line"/>
    </contour>
  </outline>
</glyph>
<glyph name="m" format="2">
  <advance width="829"/>
  <unicode hex="006D"/>
  <anchor x="335.20000000000005" y="407.20000000000005" name="aboveLC"/>
  <anchor x="340.0" y="-17.6" name="belowLC"/>
  <outline>
    <contour>
      <point x="65.60000000000001" y="0.0" type="line"/>
      <point x="131.20000000000002" y="0.0" type="line"/>
      <point x="131.20000000000002" y="281.6" type="line"/>
      <point x="167.20000000000002" y="321.6"/>
      <point x="200.0" y="341.6"/>
      <point x="228.8" y="341.6" type="curve" smooth="yes"/>
      <point x="278.40000000000003" y="341.6"/>
      <point x="301.6" y="310.40000000000003"/>
      <point x="301.6" y="237.60000000000002" type="curve" smooth="yes"/>
      <point x="301.6" y="0.0" type="line"/>
      <point x="367.20000000000005" y="0.0" type="line"/>
      <point x="367.20000000000005" y="281.6" type="line"/>
      <point x="403.20000000000005" y="321.6"/>
      <point x="434.40000000000003" y="341.6"/>
      <point x="464.8" y="341.6" type="curve" smooth="yes"/>
      <point x="513.6" y="341.6"/>
      <point x="536.8000000000001" y="310.40000000000003"/>
      <point x="536.8000000000001" y="237.60000000000002" type="curve" smooth="yes"/>
      <point x="536.8000000000001" y="0.0" type="line"/>
      <point x="602.4" y="0.0" type="line"/>
      <point x="602.4" y="246.4" type="line" smooth="yes"/>
      <point x="602.4" y="345.6"/>
      <point x="564.0" y="398.40000000000003"/>
      <point x="484.0" y="398.40000000000003" type="curve" smooth="yes"/>
      <point x="436.8" y="398.40000000000003"/>
      <point x="396.8" y="368.0"/>
      <point x="356.0" y="324.0" type="curve"/>
      <point x="340.0" y="370.40000000000003"/>
      <point x="308.0" y="398.40000000000003"/>
      <point x="248.8" y="398.40000000000003" type="curve" smooth="yes"/>
      <point x="202.4" y="398.40000000000003"/>
      <point x="161.60000000000002" y="369.6"/>
      <point x="128.0" y="332.8" type="curve"/>
      <point x="125.60000000000001" y="332.8" type="line"/>
      <point x="120.0" y="388.8" type="line"/>
      <point x="65.60000000000001" y="388.8" type="line"/>
    </contour>
  </outline>
</glyph>
<glyph name="n" format="2">
  <advance width="547"/>
  <unicode hex="006E"/>
  <anchor x="232.8" y="407.20000000000005" name="aboveLC"/>
  <anchor x="222.4" y="-17.6" name="belowLC"/>
  <outline>
    <contour>
      <point x="65.60000000000001" y="0.0" type="line"/>
      <point x="131.20000000000002" y="0.0" type="line"/>
      <point x="131.20000000000002" y="281.6" type="line"/>
      <point x="170.4" y="320.8"/>
      <point x="197.60000000000002" y="341.6"/>
      <point x="237.60000000000002" y="341.6" type="curve" smooth="yes"/>
      <point x="288.8" y="341.6"/>
      <point x="311.20000000000005" y="310.40000000000003"/>
      <point x="311.20000000000005" y="237.60000000000002" type="curve" smooth="yes"/>
      <point x="311.20000000000005" y="0.0" type="line"/>
      <point x="376.8" y="0.0" type="line"/>
      <point x="376.8" y="246.4" type="line" smooth="yes"/>
      <point x="376.8" y="345.6"/>
      <point x="340.0" y="398.40000000000003"/>
      <point x="258.40000000000003" y="398.40000000000003" type="curve" smooth="yes"/>
      <point x="204.8" y="398.40000000000003"/>
      <point x="164.8" y="369.6"/>
      <point x="128.0" y="332.8" type="curve"/>
      <point x="125.60000000000001" y="332.8" type="line"/>
      <point x="120.0" y="388.8" type="line"/>
      <point x="65.60000000000001" y="388.8" type="line"/>
    </contour>
  </outline>
</glyph>
<glyph name="q" format="2">
  <advance width="555"/>
  <unicode hex="0071"/>
  <anchor x="222.4" y="407.20000000000005" name="aboveLC"/>
  <anchor x="340.8" y="-174.4" name="belowLC"/>
  <outline>
    <contour>
      <point x="312.0" y="-164.0" type="line"/>
      <point x="378.40000000000003" y="-164.0" type="line"/>
      <point x="378.40000000000003" y="388.8" type="line"/>
      <point x="325.6" y="388.8" type="line"/>
      <point x="319.20000000000005" y="352.0" type="line"/>
      <point x="317.6" y="352.0" type="line"/>
      <point x="282.40000000000003" y="382.40000000000003"/>
      <point x="251.20000000000002" y="398.40000000000003"/>
      <point x="206.4" y="398.40000000000003" type="curve" smooth="yes"/>
      <point x="117.60000000000001" y="398.40000000000003"/>
      <point x="37.6" y="320.0"/>
      <point x="37.6" y="193.60000000000002" type="curve" smooth="yes"/>
      <point x="37.6" y="64.0"/>
      <point x="100.80000000000001" y="-9.600000000000001"/>
      <point x="198.4" y="-9.600000000000001" type="curve" smooth="yes"/>
      <point x="243.20000000000002" y="-9.600000000000001"/>
      <point x="284.0" y="14.4"/>
      <point x="315.20000000000005" y="44.800000000000004" type="curve"/>
      <point x="312.0" y="-25.6" type="line"/>
    </contour>
    <contour>
      <point x="212.8" y="45.6" type="curve" smooth="yes"/>
      <point x="144.8" y="45.6"/>
      <point x="105.60000000000001" y="101.60000000000001"/>
      <point x="105.60000000000001" y="194.4" type="curve" smooth="yes"/>
      <point x="105.60000000000001" y="283.2"/>
      <point x="155.20000000000002" y="343.20000000000005"/>
      <point x="217.60000000000002" y="343.20000000000005" type="curve" smooth="yes"/>
      <point x="249.60000000000002" y="343.20000000000005"/>
      <point x="279.2" y="332.0"/>
      <point x="312.0" y="302.40000000000003" type="curve"/>
      <point x="312.0" y="99.2" type="line"/>
      <point x="280.0" y="63.2"/>
      <point x="248.8" y="45.6"/>
    </contour>
  </outline>
</glyph>
<glyph name="r" format="2">
  <advance width="347"/>
  <unicode hex="0072"/>
  <anchor x="172.8" y="407.20000000000005" name="aboveLC"/>
  <anchor x="98.4" y="-17.6" name="belowLC"/>
  <outline>
    <contour>
      <point x="65.60000000000001" y="0.0" type="line"/>
      <point x="131.20000000000002" y="0.0" type="line"/>
      <point x="131.20000000000002" y="249.60000000000002" type="line"/>
      <point x="157.60000000000002" y="315.20000000000005"/>
      <point x="196.8" y="339.20000000000005"/>
      <point x="229.60000000000002" y="339.20000000000005" type="curve" smooth="yes"/>
      <point x="245.60000000000002" y="339.20000000000005"/>
      <point x="254.4" y="336.8"/>
      <point x="267.2" y="332.8" type="curve"/>
      <point x="280.0" y="390.40000000000003" type="line"/>
      <point x="267.2" y="396.0"/>
      <point x="255.20000000000002" y="398.40000000000003"/>
      <point x="238.4" y="398.40000000000003" type="curve" smooth="yes"/>
      <point x="194.4" y="398.40000000000003"/>
      <point x="154.4" y="367.20000000000005"/>
      <point x="128.0" y="318.40000000000003" type="curve"/>
      <point x="125.60000000000001" y="318.40000000000003" type="line"/>
      <point x="120.0" y="388.8" type="line"/>
      <point x="65.60000000000001" y="388.8" type="line"/>
    </contour>
  </outline>
</glyph>
<glyph name="s" format="2">
  <advance width="419"/>
  <unicode hex="0073"/>
  <anchor x="175.20000000000002" y="407.20000000000005" name="aboveLC"/>
  <anchor x="178.4" y="0" name="baseLC"/>
  <anchor x="178.4" y="-17.6" name="belowLC"/>
  <outline>
    <contour>
      <point x="167.20000000000002" y="-9.600000000000001" type="curve" smooth="yes"/>
      <point x="259.2" y="-9.600000000000001"/>
      <point x="309.6" y="43.2"/>
      <point x="309.6" y="106.4" type="curve" smooth="yes"/>
      <point x="309.6" y="180.0"/>
      <point x="247.20000000000002" y="203.20000000000002"/>
      <point x="191.20000000000002" y="224.0" type="curve" smooth="yes"/>
      <point x="147.20000000000002" y="240.8"/>
      <point x="104.80000000000001" y="254.4"/>
      <point x="104.80000000000001" y="291.2" type="curve" smooth="yes"/>
      <point x="104.80000000000001" y="320.8"/>
      <point x="127.2" y="347.20000000000005"/>
      <point x="176.0" y="347.20000000000005" type="curve" smooth="yes"/>
      <point x="210.4" y="347.20000000000005"/>
      <point x="238.4" y="332.8"/>
      <point x="264.8" y="312.8" type="curve"/>
      <point x="296.0" y="354.40000000000003" type="line"/>
      <point x="266.40000000000003" y="378.40000000000003"/>
      <point x="224.0" y="398.40000000000003"/>
      <point x="175.20000000000002" y="398.40000000000003" type="curve" smooth="yes"/>
      <point x="91.2" y="398.40000000000003"/>
      <point x="41.6" y="350.40000000000003"/>
      <point x="41.6" y="288.0" type="curve" smooth="yes"/>
      <point x="41.6" y="222.4"/>
      <point x="102.4" y="196.0"/>
      <point x="157.60000000000002" y="176.0" type="curve" smooth="yes"/>
      <point x="200.0" y="160.0"/>
      <point x="246.4" y="142.4"/>
      <point x="246.4" y="102.4" type="curve" smooth="yes"/>
      <point x="246.4" y="68.8"/>
      <point x="220.8" y="41.6"/>
      <point x="169.60000000000002" y="41.6" type="curve" smooth="yes"/>
      <point x="123.2" y="41.6"/>
      <point x="88.80000000000001" y="60.800000000000004"/>
      <point x="55.2" y="88.0" type="curve"/>
      <point x="22.400000000000002" y="44.0" type="line"/>
      <point x="59.2" y="13.600000000000001"/>
      <point x="112.0" y="-9.600000000000001"/>
    </contour>
  </outline>
</glyph>
<glyph name="t" format="2">
  <advance width="338"/>
  <unicode hex="0074"/>
  <anchor x="114.4" y="514.4" name="aboveLC"/>
  <anchor x="173.60000000000002" y="0" name="baseLC"/>
  <anchor x="169.60000000000002" y="-17.6" name="belowLC"/>
  <outline>
    <contour>
      <point x="188.0" y="-9.600000000000001" type="curve" smooth="yes"/>
      <point x="212.0" y="-9.600000000000001"/>
      <point x="238.4" y="-2.4000000000000004"/>
      <point x="260.0" y="4.800000000000001" type="curve"/>
      <point x="247.20000000000002" y="54.400000000000006" type="line"/>
      <point x="234.4" y="49.6"/>
      <point x="216.8" y="44.0"/>
      <point x="203.20000000000002" y="44.0" type="curve" smooth="yes"/>
      <point x="158.4" y="44.0"/>
      <point x="143.20000000000002" y="71.2"/>
      <point x="143.20000000000002" y="119.2" type="curve" smooth="yes"/>
      <point x="143.20000000000002" y="335.20000000000005" type="line"/>
      <point x="248.0" y="335.20000000000005" type="line"/>
      <point x="248.0" y="388.8" type="line"/>
      <point x="143.20000000000002" y="388.8" type="line"/>
      <point x="143.20000000000002" y="497.6" type="line"/>
      <point x="88.0" y="497.6" type="line"/>
      <point x="80.0" y="388.8" type="line"/>
      <point x="19.200000000000003" y="384.8" type="line"/>
      <point x="19.200000000000003" y="335.20000000000005" type="line"/>
      <point x="76.80000000000001" y="335.20000000000005" type="line"/>
      <point x="76.80000000000001" y="120.0" type="line" smooth="yes"/>
      <point x="76.80000000000001" y="43.2"/>
      <point x="104.80000000000001" y="-9.600000000000001"/>
    </contour>
  </outline>
</glyph>
<glyph name="y" format="2">
  <advance width="467"/>
  <unicode hex="0079"/>
  <anchor x="194.4" y="407.20000000000005" name="aboveLC"/>
  <anchor x="160.0" y="-193.60000000000002" name="belowLC"/>
  <outline>
    <contour>
      <point x="72.0" y="-167.20000000000002" type="curve" smooth="yes"/>
      <point x="150.4" y="-167.20000000000002"/>
      <point x="190.4" y="-108.80000000000001"/>
      <point x="217.60000000000002" y="-32.0" type="curve"/>
      <point x="364.0" y="388.8" type="line"/>
      <point x="300.0" y="388.8" type="line"/>
      <point x="230.4" y="173.60000000000002" type="line" smooth="yes"/>
      <point x="220.0" y="139.20000000000002"/>
      <point x="208.8" y="99.2"/>
      <point x="197.60000000000002" y="64.0" type="curve"/>
      <point x="194.4" y="64.0" type="line"/>
      <point x="182.4" y="100.0"/>
      <point x="168.8" y="140.0"/>
      <point x="156.8" y="173.60000000000002" type="curve" smooth="yes"/>
      <point x="77.60000000000001" y="388.8" type="line"/>
      <point x="9.600000000000001" y="388.8" type="line"/>
      <point x="165.60000000000002" y="-0.8" type="line"/>
      <point x="156.8" y="-29.6" type="line" smooth="yes"/>
      <point x="140.8" y="-77.60000000000001"/>
      <point x="112.80000000000001" y="-112.80000000000001"/>
      <point x="68.8" y="-112.80000000000001" type="curve" smooth="yes"/>
      <point x="59.2" y="-112.80000000000001"/>
      <point x="47.2" y="-109.60000000000001"/>
      <point x="39.2" y="-107.2" type="curve"/>
      <point x="26.400000000000002" y="-159.20000000000002" type="line"/>
      <point x="39.2" y="-164.0"/>
      <point x="54.400000000000006" y="-167.20000000000002"/>
    </contour>
  </outline>
</glyph>
<glyph name="z" format="2">
  <advance width="425"/>
  <unicode hex="007A"/>
  <anchor x="183.20000000000002" y="407.20000000000005" name="aboveLC"/>
  <anchor x="182.4" y="-17.6" name="belowLC"/>
  <outline>
    <contour>
      <point x="24.8" y="0.0" type="line"/>
      <point x="319.20000000000005" y="0.0" type="line"/>
      <point x="319.20000000000005" y="53.6" type="line"/>
      <point x="108.0" y="53.6" type="line"/>
      <point x="312.8" y="353.6" type="line"/>
      <point x="312.8" y="388.8" type="line"/>
      <point x="47.2" y="388.8" type="line"/>
      <point x="47.2" y="335.20000000000005" type="line"/>
      <point x="229.60000000000002" y="335.20000000000005" type="line"/>
      <point x="24.8" y="35.2" type="line"/>
    </contour>
  </outline>
</glyph>
<glyph name="bar" format="2">
  <advance width="241"/>
  <unicode hex="007C"/>
  <outline>
    <contour>
      <point x="73.60000000000001" y="-200.0" type="line"/>
      <point x="120.0" y="-200.0" type="line"/>
      <point x="120.0" y="600.0" type="line"/>
      <point x="73.60000000000001" y="600.0" type="line"/>
    </contour>
  </outline>
</glyph>
<glyph name="braceright" format="2">
  <advance width="303"/>
  <unicode hex="007D"/>
  <outline>
    <contour>
      <point x="24.8" y="-121.60000000000001" type="line"/>
      <point x="60.0" y="-121.60000000000001" type="line" smooth="yes"/>
      <point x="124.0" y="-121.60000000000001"/>
      <point x="153.60000000000002" y="-97.60000000000001"/>
      <point x="153.60000000000002" y="-15.200000000000001" type="curve" smooth="yes"/>
      <point x="153.60000000000002" y="43.2"/>
      <point x="146.4" y="85.60000000000001"/>
      <point x="146.4" y="139.20000000000002" type="curve" smooth="yes"/>
      <point x="146.4" y="170.4"/>
      <point x="161.60000000000002" y="200.8"/>
      <point x="215.20000000000002" y="201.60000000000002" type="curve"/>
      <point x="215.20000000000002" y="243.20000000000002" type="line"/>
      <point x="161.60000000000002" y="244.0"/>
      <point x="146.4" y="274.40000000000003"/>
      <point x="146.4" y="304.8" type="curve" smooth="yes"/>
      <point x="146.4" y="359.20000000000005"/>
      <point x="153.60000000000002" y="401.6"/>
      <point x="153.60000000000002" y="460.0" type="curve" smooth="yes"/>
      <point x="153.60000000000002" y="542.4"/>
      <point x="124.0" y="566.4"/>
      <point x="60.0" y="566.4" type="curve" smooth="yes"/>
      <point x="24.8" y="566.4" type="line"/>
      <point x="24.8" y="528.8000000000001" type="line"/>
      <point x="45.6" y="528.8000000000001" type="line" smooth="yes"/>
      <point x="88.80000000000001" y="528.8000000000001"/>
      <point x="100.0" y="508.0"/>
      <point x="100.0" y="456.0" type="curve" smooth="yes"/>
      <point x="100.0" y="407.20000000000005"/>
      <point x="96.0" y="365.6"/>
      <point x="96.0" y="311.20000000000005" type="curve" smooth="yes"/>
      <point x="96.0" y="259.2"/>
      <point x="108.80000000000001" y="233.60000000000002"/>
      <point x="143.20000000000002" y="224.0" type="curve"/>
      <point x="143.20000000000002" y="220.8" type="line"/>
      <point x="108.80000000000001" y="211.20000000000002"/>
      <point x="96.0" y="184.8"/>
      <point x="96.0" y="133.6" type="curve" smooth="yes"/>
      <point x="96.0" y="79.2"/>
      <point x="100.0" y="37.6"/>
      <point x="100.0" y="-11.200000000000001" type="curve" smooth="yes"/>
      <point x="100.0" y="-63.2"/>
      <point x="88.80000000000001" y="-84.0"/>
      <point x="45.6" y="-84.0" type="curve" smooth="yes"/>
      <point x="24.8" y="-84.0" type="line"/>
    </contour>
  </outline>
</glyph>
<glyph name="asciitilde" format="2">
  <advance width="497"/>
  <unicode hex="007E"/>
  <outline>
    <contour>
      <point x="268.8" y="205.60000000000002" type="curve" smooth="yes"/>
      <point x="303.2" y="205.60000000000002"/>
      <point x="340.0" y="226.4"/>
      <point x="368.8" y="276.8" type="curve"/>
      <point x="332.0" y="304.0" type="line"/>
      <point x="313.6" y="269.6"/>
      <point x="293.6" y="255.20000000000002"/>
      <point x="270.40000000000003" y="255.20000000000002" type="curve" smooth="yes"/>
      <point x="225.60000000000002" y="255.20000000000002"/>
      <point x="192.0" y="322.40000000000003"/>
      <point x="128.8" y="322.40000000000003" type="curve" smooth="yes"/>
      <point x="94.4" y="322.40000000000003"/>
      <point x="57.6" y="301.6"/>
      <point x="28.8" y="250.4" type="curve"/>
      <point x="65.60000000000001" y="224.0" type="line"/>
      <point x="84.0" y="258.40000000000003"/>
      <point x="104.0" y="272.8"/>
      <point x="127.2" y="272.8" type="curve" smooth="yes"/>
      <point x="172.0" y="272.8"/>
      <point x="205.60000000000002" y="205.60000000000002"/>
    </contour>
  </outline>
</glyph>
